<?xml version="1.0" standalone="no"?>
<!DOCTYPE svg PUBLIC "-//W3C//DTD SVG 20010904//EN"
 "http://www.w3.org/TR/2001/REC-SVG-20010904/DTD/svg10.dtd">
<svg version="1.0" xmlns="http://www.w3.org/2000/svg"
 width="512.000000pt" height="512.000000pt" viewBox="0 0 512.000000 512.000000"
 preserveAspectRatio="xMidYMid meet">
<metadata>
Created by potrace 1.14, written by Peter Selinger 2001-2017
</metadata>
<g transform="translate(0.000000,512.000000) scale(0.100000,-0.100000)"
fill="#000000" stroke="none">
<path d="M1109 4606 c-1 -1 -2 -693 -3 -1539 l-1 -1538 53 -39 c29 -22 57 -40
62 -40 4 0 10 -3 12 -8 2 -4 70 -55 152 -112 83 -58 186 -131 230 -163 45 -31
104 -73 131 -92 28 -19 71 -49 96 -67 25 -18 74 -53 110 -77 35 -25 66 -47 69
-50 3 -3 12 -10 21 -16 10 -5 50 -33 90 -62 41 -29 81 -57 89 -63 95 -66 298
-211 308 -220 15 -14 -3 -25 242 148 113 80 238 168 278 196 40 28 88 62 107
76 18 14 41 31 51 37 24 16 315 220 330 230 5 4 17 13 26 18 59 39 224 151
228 156 3 3 54 38 113 78 l109 73 -3 336 c-2 185 -6 345 -11 354 -4 9 -19 23
-32 30 -13 7 -97 65 -186 128 -89 63 -172 122 -185 130 -29 19 -216 151 -230
162 -5 5 -62 44 -125 88 -63 44 -119 83 -125 88 -5 4 -27 20 -48 34 l-38 26
83 59 c46 33 142 101 213 151 188 132 597 419 619 434 68 47 61 -10 60 540 0
272 -4 499 -7 505 -7 11 -561 12 -572 1 -4 -4 -9 -35 -11 -70 -5 -117 -16
-353 -16 -368 0 -13 -39 -15 -281 -18 l-282 -3 0 233 0 233 -287 1 c-252 0
-287 -2 -290 -15 -2 -9 -3 -114 -3 -233 l2 -218 -56 0 c-189 -1 -526 1 -528 4
-2 2 -4 106 -6 232 l-2 229 -277 1 c-153 0 -279 0 -279 0z"/>
</g>
</svg>
